#!OML:ASF F:\VICON\USERDATA\INSTALL\Justin_Nancy\Justin_Nancy.ASF
:FULLY-SPECIFIED
:DEGREES
48
root -8.03877 17.3791 -23.326 0.451584 -9.10815 -1.59896
lowerback 4.14517 1.78966 0.855345
upperback 0.439538 2.46283 2.00393
thorax -1.92323 1.22866 1.43605
lowerneck -14.7781 -3.18425 -10.1525
upperneck 23.4113 -3.42519 6.05708
head 10.1918 -1.7945 3.40702
rclavicle -1.62755e-014 -7.95139e-016
rhumerus -26.4886 -10.7935 -79.5875
rradius 33.3247
rwrist 5.65954
rhand -16.6984 17.2821
rfingers 7.12502
rthumb 9.52632 -12.4826
lclavicle -1.62755e-014 -7.95139e-016
lhumerus -38.9845 19.0924 79.182
lradius 17.4848
lwrist -21.2903
lhand -12.4606 27.7925
lfingers 7.12502
lthumb 13.6131 57.3274
rfemur 8.03723 3.8056 25.97
rtibia 35.1415
rfoot -3.42418 2.47748
rtoes -6.11365
lfemur -25.0122 -1.19527 -21.2454
ltibia 22.6336
lfoot -1.02176 4.54256
ltoes -3.8318
49
root -8.03825 17.3923 -23.1521 0.267408 -8.75037 -1.16514
lowerback 4.40975 1.71655 0.36529
upperback 0.347648 2.3467 1.8814
thorax -2.17801 1.17477 1.58124
lowerneck -15.0051 -3.24534 -9.98054
upperneck 23.649 -3.5108 5.94192
head 10.324 -1.8318 3.32824
rclavicle -9.56651e-015 7.15625e-015
rhumerus -26.7791 -11.671 -79.4256
rradius 32.8964
rwrist 6.18415
rhand -16.7572 16.8664
rfingers 7.12502
rthumb 9.46964 -12.9008
lclavicle -9.56651e-015 7.15625e-015
lhumerus -38.9846 19.2517 78.9369
lradius 17.303
lwrist -21.6285
lhand -12.3077 28.1072
lfingers 7.12502
lthumb 13.7605 57.6322
rfemur 6.87719 3.17427 25.2079
rtibia 37.7251
rfoot -0.486883 2.8337
rtoes -2.71558
lfemur -24.4452 -0.459084 -22.0337
ltibia 22.7526
lfoot -0.877328 3.46831
ltoes -3.56222
50
root -8.03764 17.4005 -22.9795 0.125368 -8.19129 -1.02272
lowerback 4.75439 1.53593 0.129673
upperback 0.153023 2.10291 1.90213
thorax -2.57434 1.05712 1.73777
lowerneck -14.8909 -3.29565 -9.83094
upperneck 23.7296 -3.56331 5.66084
head 10.3289 -1.87787 3.19594
rclavicle 1.20265e-014 -1.15295e-014
rhumerus -27.2866 -12.4089 -79.1434
rradius 32.5924
rwrist 6.72416
rhand -16.4113 16.3344
rfingers 7.12502
rthumb 9.80336 -13.4174
lclavicle 1.20265e-014 -1.15295e-014
lhumerus -39.1522 18.9771 79.0214
lradius 17.3419
lwrist -21.1291
lhand -12.0565 29.3483
lfingers 7.12502
lthumb 14.0026 58.8567
rfemur 5.66818 2.37717 24.7811
rtibia 40.1657
rfoot 2.44756 2.96263
rtoes -0.53672
lfemur -23.9708 0.226082 -22.5263
ltibia 23.0061
lfoot -1.07478 2.13596
ltoes -3.5975
51
root -8.03411 17.4084 -22.8067 -0.0826958 -7.86623 -1.03513
lowerback 4.89384 1.42947 0.22389
upperback 0.151666 1.96744 1.88357
thorax -2.64593 0.988368 1.67186
lowerneck -14.6532 -3.37887 -9.857
upperneck 23.5466 -3.69174 5.65324
head 10.2291 -1.94117 3.17816
rclavicle -6.26172e-015 3.97569e-016
rhumerus -27.6392 -12.9602 -79.0329
rradius 32.4386
rwrist 7.08802
rhand -15.8345 14.1387
rfingers 7.12502
rthumb 10.3598 -15.5861
lclavicle -6.26172e-015 3.97569e-016
lhumerus -39.2714 18.5768 79.172
lradius 17.7777
lwrist -20.253
lhand -11.6211 30.6754
lfingers 7.12502
lthumb 14.4221 60.1543
rfemur 4.60179 1.7667 24.5033
rtibia 42.5058
rfoot 5.03765 3.40297
rtoes -0.934422
lfemur -23.345 0.636021 -22.7473
ltibia 23.2617
lfoot -1.13347 1.35072
ltoes -2.89806
52
root -8.02783 17.4169 -22.6385 -0.255081 -7.66306 -0.914136
lowerback 4.75142 1.374 0.275048
upperback 0.310917 1.88883 1.78618
thorax -2.39485 0.947127 1.55409
lowerneck -14.5746 -3.37059 -9.95208
upperneck 23.3537 -3.69793 5.81188
head 10.1495 -1.93277 3.24769
rclavicle 3.25013e-014 1.66979e-014
rhumerus -27.7353 -13.4517 -78.9867
rradius 32.2606
rwrist 7.41927
rhand -14.7696 10.5902
rfingers 7.12502
rthumb 11.3869 -19.0807
lclavicle 3.25013e-014 1.66979e-014
lhumerus -39.1977 17.8729 79.5426
lradius 18.4737
lwrist -19.4746
lhand -11.3948 31.1338
lfingers 7.12502
lthumb 14.6402 60.597
rfemur 3.48964 1.25659 24.0674
rtibia 44.8065
rfoot 7.41215 4.17918
rtoes -1.31295
lfemur -22.7672 0.907704 -23.073
ltibia 23.532
lfoot -1.31539 0.478199
ltoes -1.63683
53
root -8.01716 17.4341 -22.4689 -0.432395 -7.53265 -0.704578
lowerback 4.79328 1.26131 0.2093
upperback 0.415 1.73155 1.69584
thorax -2.30619 0.86843 1.50911
lowerneck -14.7593 -3.27531 -10.0627
upperneck 23.2974 -3.56228 6.00237
head 10.1573 -1.85492 3.35135
rclavicle -1.96548e-014 -6.36111e-015
rhumerus -27.9616 -13.4904 -79.0918
rradius 32.3099
rwrist 7.46295
rhand -14.7302 8.99889
rfingers 7.12502
rthumb 11.425 -20.6698
lclavicle -1.96548e-014 -6.36111e-015
lhumerus -38.9954 17.9262 79.5378
lradius 18.7767
lwrist -19.4076
lhand -11.1198 30.9937
lfingers 7.12502
lthumb 14.9051 60.4375
rfemur 2.24277 0.940617 23.539
rtibia 47.1492
rfoot 9.92474 4.73186
rtoes 2.18704
lfemur -22.0914 1.13634 -23.5016
ltibia 23.6715
lfoot -1.75425 -0.572882
ltoes -0.320198
54
root -8.0075 17.4492 -22.3045 -0.714876 -7.52767 -0.423226
lowerback 5.08678 1.19831 0.0662255
upperback 0.454608 1.63919 1.57452
thorax -2.42783 0.823224 1.46513
lowerneck -14.7684 -3.19861 -9.9554
upperneck 23.1564 -3.44933 5.89749
head 10.0937 -1.80321 3.30797
rclavicle 3.2054e-015 -8.34896e-015
rhumerus -28.3611 -13.3483 -79.1932
rradius 32.39
rwrist 7.08406
rhand -15.1334 10.063
rfingers 7.12502
rthumb 11.0361 -19.6269
lclavicle 3.2054e-015 -8.34896e-015
lhumerus -38.7909 18.0637 79.4207
lradius 18.8833
lwrist -19.3438
lhand -11.1456 30.9356
lfingers 7.12502
lthumb 14.8802 60.3812
rfemur 1.02478 0.788429 22.9987
rtibia 49.5801
rfoot 12.0225 5.04588
rtoes 5.73617
lfemur -21.2214 1.27388 -23.9523
ltibia 23.6029
lfoot -1.86745 -0.916585
ltoes 0.148789
55
root -7.99633 17.4629 -22.1422 -1.02202 -7.43542 0.0903783
lowerback 5.2954 1.10487 -0.419641
upperback 0.501483 1.48588 1.51103
thorax -2.50308 0.751576 1.68017
lowerneck -14.6173 -3.06604 -10.0819
upperneck 23.0945 -3.23462 5.86154
head 10.0253 -1.72066 3.34457
rclavicle -3.05631e-014 -7.15625e-015
rhumerus -28.5692 -13.3148 -79.0706
rradius 32.1103
rwrist 6.90906
rhand -14.9128 10.9151
rfingers 7.12502
rthumb 11.2489 -18.7633
lclavicle -3.05631e-014 -7.15625e-015
lhumerus -38.6601 17.8111 79.7199
lradius 19.0674
lwrist -19.1053
lhand -11.4495 30.8572
lfingers 7.12502
lthumb 14.5875 60.3242
rfemur -0.158436 0.541411 22.1934
rtibia 52.0534
rfoot 13.2792 4.96544
rtoes 8.52253
lfemur -20.2518 1.12703 -24.6282
ltibia 23.3836
lfoot -1.66037 -0.479179
ltoes 0.371518
56
root -7.98533 17.4778 -21.9804 -1.17631 -7.30244 0.607697
lowerback 5.31194 1.07267 -0.900949
upperback 0.602412 1.4119 1.43369
thorax -2.41564 0.718149 1.87713
lowerneck -14.6687 -2.99629 -10.2288
upperneck 23.0858 -3.09507 5.87371
head 10.0225 -1.66662 3.39189
rclavicle 2.95444e-014 1.51076e-014
rhumerus -28.4351 -13.6986 -78.8774
rradius 31.4956
rwrist 7.10234
rhand -14.8833 10.9133
rfingers 7.12502
rthumb 11.2773 -18.7635
lclavicle 2.95444e-014 1.51076e-014
lhumerus -38.1753 16.7468 80.5351
lradius 19.4063
lwrist -18.257
lhand -11.4895 30.9586
lfingers 7.12502
lthumb 14.5489 60.4284
rfemur -1.57276 0.219809 21.3991
rtibia 54.5066
rfoot 13.4202 4.47856
rtoes 8.8801
lfemur -19.3943 0.898566 -25.3295
ltibia 23.0998
lfoot -1.71666 -0.165824
ltoes 0.439702
